<svg width="90" height="69" viewBox="0 0 90 69" fill="none" xmlns="http://www.w3.org/2000/svg">
<path d="M7.915 62.605C2.765 57.135 0 51 0 41.055C0 23.555 12.285 7.86999 30.15 0.11499L34.615 7.00499C17.94 16.025 14.68 27.73 13.38 35.11C16.065 33.72 19.58 33.235 23.025 33.555C32.045 34.39 39.155 41.795 39.155 51C39.155 55.6413 37.3113 60.0925 34.0294 63.3744C30.7475 66.6562 26.2963 68.5 21.655 68.5C16.29 68.5 11.16 66.05 7.915 62.605ZM57.915 62.605C52.765 57.135 50 51 50 41.055C50 23.555 62.285 7.86999 80.15 0.11499L84.615 7.00499C67.94 16.025 64.68 27.73 63.38 35.11C66.065 33.72 69.58 33.235 73.025 33.555C82.045 34.39 89.155 41.795 89.155 51C89.155 55.6413 87.3113 60.0925 84.0294 63.3744C80.7475 66.6562 76.2963 68.5 71.655 68.5C66.29 68.5 61.16 66.05 57.915 62.605Z" fill="#C9C9C9"/>
</svg>
